<?xml version="1.0" encoding="utf-8"?>
<!-- Generator: Adobe Illustrator 16.0.0, SVG Export Plug-In . SVG Version: 6.00 Build 0)  -->
<!DOCTYPE svg PUBLIC "-//W3C//DTD SVG 1.1//EN" "http://www.w3.org/Graphics/SVG/1.1/DTD/svg11.dtd">
<svg version="1.1" xmlns="http://www.w3.org/2000/svg" xmlns:xlink="http://www.w3.org/1999/xlink" x="0px" y="0px"
	 width="42.027px" height="36px" viewBox="284.886 378 42.027 36" enable-background="new 284.886 378 42.027 36"
	 xml:space="preserve">
<g id="Layer_1">
	<title>34</title>
	<g>
		<path fill="#F44647" d="M289.417,406.224c-2.138,0.015-3.859,1.76-3.845,3.897c0.014,2.138,1.758,3.858,3.895,3.844
			c1.958-0.013,3.599-1.483,3.821-3.431h8.928c0.001,2.138,1.734,3.466,3.872,3.466c2.137,0,3.87-1.328,3.87-3.466h8.752
			c0.244,2.126,2.163,3.649,4.286,3.406c2.122-0.242,3.647-2.162,3.405-4.285c-0.243-2.124-2.162-3.649-4.285-3.407
			c-0.37,0.043-0.731,0.139-1.074,0.284l-4.266-7.302c1.74-1.24,2.145-3.656,0.904-5.397c-1.068-1.501-3.049-2.041-4.73-1.288
			l-4.443-7.654c1.668-1.335,1.938-3.771,0.603-5.44c-1.335-1.668-3.773-1.938-5.441-0.603c-1.669,1.336-1.938,3.772-0.602,5.441
			c0.177,0.223,0.379,0.425,0.602,0.602l-4.397,7.654c-1.952-0.874-4.242,0.001-5.114,1.952c-0.754,1.683-0.216,3.664,1.287,4.733
			l-4.311,7.392C290.6,406.358,290.013,406.224,289.417,406.224z M289.417,413.132c-1.651,0-2.991-1.34-2.991-2.993
			c0-1.652,1.34-2.991,2.991-2.991c1.652,0,2.991,1.339,2.991,2.991C292.409,411.792,291.069,413.132,289.417,413.132
			L289.417,413.132z M306.088,413.132L306.088,413.132c-1.652,0-2.991-1.34-2.991-2.993c0-1.652,1.338-2.991,2.991-2.991
			s2.992,1.339,2.992,2.991C309.08,411.792,307.74,413.132,306.088,413.132L306.088,413.132z M301.69,395.888h8.842
			c0,0.087,0,0.176,0,0.22c0,1.289,0.646,2.492,1.715,3.211l-4.224,7.389c-1.187-0.675-2.64-0.675-3.827,0l-4.267-7.346
			c1.071-0.715,1.715-1.921,1.716-3.21C301.69,396.064,301.69,395.976,301.69,395.888z M325.574,410.097
			c0,1.65-1.34,2.991-2.991,2.991c-1.653,0-2.991-1.341-2.991-2.991c0-1.654,1.338-2.992,2.991-2.992
			C324.234,407.104,325.574,408.442,325.574,410.097L325.574,410.097z M320.25,406.974c-0.863,0.64-1.42,1.611-1.539,2.682h-8.752
			c-0.104-0.93-0.542-1.788-1.23-2.419l4.309-7.478c0.974,0.365,2.054,0.316,2.991-0.131L320.25,406.974z M317.436,396.152
			c0,1.651-1.34,2.989-2.991,2.989c-1.65,0-2.99-1.338-2.99-2.989c0-1.652,1.34-2.991,2.99-2.991
			C316.096,393.162,317.436,394.5,317.436,396.152L317.436,396.152z M303.097,381.857c0-1.652,1.338-2.991,2.991-2.991
			s2.992,1.339,2.992,2.991c0,1.652-1.34,2.991-2.992,2.991l0,0C304.436,384.848,303.097,383.509,303.097,381.857L303.097,381.857z
			 M304.417,385.376c1.055,0.513,2.288,0.513,3.344,0l4.397,7.609c-0.714,0.504-1.241,1.23-1.495,2.067h-9.148
			c-0.254-0.837-0.781-1.563-1.496-2.067L304.417,385.376z M294.785,396.152c0-1.652,1.338-2.991,2.991-2.991
			c1.652,0,2.99,1.339,2.99,2.991c0,1.651-1.338,2.989-2.99,2.989l0,0C296.123,399.142,294.785,397.804,294.785,396.152z
			 M296.147,399.671c0.937,0.449,2.018,0.497,2.991,0.132l4.311,7.478c-0.69,0.63-1.127,1.49-1.232,2.419h-8.928
			c-0.12-1.002-0.625-1.915-1.407-2.552L296.147,399.671z"/>
	</g>
</g>
<g id="Layer_6" display="none">
	<g display="inline">
		<path fill="#F44647" d="M292.777,388.704v-7.202c0-1.379,1.122-2.501,2.501-2.501h1.75c0.277,0,0.5-0.224,0.5-0.5
			s-0.224-0.5-0.5-0.5h-1.75c-1.931,0-3.502,1.571-3.502,3.502v7.201c0,1.725-0.505,3.396-1.46,4.83l-1.458,2.189
			c-0.113,0.171-0.111,0.393,0.006,0.562l1.357,1.958c1.017,1.466,1.554,3.184,1.554,4.967v7.287c0,1.932,1.571,3.502,3.501,3.502
			h1.751c0.276,0,0.5-0.223,0.5-0.501c0-0.276-0.224-0.499-0.5-0.499h-1.751c-1.378,0-2.5-1.122-2.5-2.502v-7.287
			c0-1.99-0.6-3.905-1.733-5.539l-1.165-1.678l1.27-1.906C292.215,392.488,292.777,390.626,292.777,388.704z"/>
		<path fill="#F44647" d="M323.14,395.723l-1.457-2.189c-0.956-1.434-1.46-3.104-1.46-4.829v-7.202c0-1.931-1.571-3.502-3.503-3.502
			h-1.751c-0.275,0-0.499,0.225-0.499,0.5c0,0.277,0.224,0.501,0.499,0.501h1.751c1.381,0,2.504,1.122,2.504,2.501v7.202
			c0,1.922,0.562,3.784,1.627,5.384l1.268,1.906l-1.162,1.678c-1.135,1.636-1.735,3.551-1.735,5.539v7.287
			c0,1.378-1.121,2.499-2.501,2.499h-1.751c-0.276,0-0.499,0.226-0.499,0.501c0,0.276,0.224,0.502,0.499,0.502h1.753
			c1.93,0,3.501-1.572,3.501-3.502v-7.287c0-1.783,0.536-3.501,1.556-4.967l1.356-1.96
			C323.253,396.116,323.254,395.895,323.14,395.723z"/>
	</g>
</g>
<g id="Layer_3" display="none">
	<g display="inline">
		<g>
			<path fill="#F44647" d="M292.981,391.372h-4.494c-0.269,0-0.486-0.216-0.486-0.485c0-0.269,0.218-0.486,0.486-0.486h4.494
				c0.269,0,0.487,0.218,0.487,0.486C293.469,391.156,293.25,391.372,292.981,391.372z"/>
		</g>
		<g>
			<path fill="#F44647" stroke="#7A7A7A" stroke-width="0.9729" stroke-linecap="round" stroke-miterlimit="10" d="M292.981,390.887
				"/>
		</g>
		<g>
			<path fill="#F44647" stroke="#7A7A7A" stroke-width="0.9729" stroke-linecap="round" stroke-miterlimit="10" d="M303.44,390.887"
				/>
		</g>
		<g>
			<path fill="#F44647" d="M323.514,391.372H303.44c-0.27,0-0.487-0.216-0.487-0.485c0-0.269,0.218-0.486,0.487-0.486h20.073
				c0.27,0,0.485,0.218,0.485,0.486C323.999,391.156,323.783,391.372,323.514,391.372z"/>
		</g>
		<g>
			<path fill="#F44647" d="M298.212,414c-0.27,0-0.487-0.218-0.487-0.487v-17.397c0-0.268,0.218-0.485,0.487-0.485
				c0.269,0,0.485,0.218,0.485,0.485v17.397C298.697,413.782,298.48,414,298.212,414z"/>
		</g>
		<g>
			<path fill="#F44647" stroke="#7A7A7A" stroke-width="0.9729" stroke-linecap="round" stroke-miterlimit="10" d="M298.212,396.115
				"/>
		</g>
		<g>
			<path fill="#F44647" stroke="#7A7A7A" stroke-width="0.9729" stroke-linecap="round" stroke-miterlimit="10" d="M298.212,385.657
				"/>
		</g>
		<g>
			<path fill="#F44647" d="M298.212,386.144c-0.27,0-0.487-0.218-0.487-0.486v-7.17c0-0.27,0.218-0.487,0.487-0.487
				c0.269,0,0.485,0.218,0.485,0.487v7.17C298.697,385.926,298.48,386.144,298.212,386.144z"/>
		</g>
		<g>
			<path fill="#F44647" d="M302.39,396.603h-8.357c-0.847,0-1.537-0.689-1.537-1.538v-8.355c0-0.849,0.69-1.538,1.537-1.538h8.357
				c0.849,0,1.537,0.689,1.537,1.538v8.355C303.927,395.913,303.238,396.603,302.39,396.603z M294.032,386.144
				c-0.311,0-0.563,0.253-0.563,0.565v8.355c0,0.312,0.253,0.565,0.563,0.565h8.357c0.312,0,0.563-0.254,0.563-0.565v-8.355
				c0-0.312-0.252-0.565-0.563-0.565H294.032z"/>
		</g>
	</g>
</g>
<g id="Layer_5" display="none">
	<g transform="translate(0,-952.36218)" display="inline">
		<path fill="#F44647" d="M302.109,1330.362c-0.295,0.001-0.413,0.21-0.487,0.426l-0.425,3.816
			c-1.744,0.608-3.327,1.538-4.697,2.721l-3.527-1.551c-0.221-0.098-0.509,0.001-0.623,0.213l-3.893,6.75
			c-0.111,0.203-0.049,0.484,0.138,0.623l3.117,2.279c-0.17,0.883-0.305,1.787-0.305,2.721c0,0.935,0.135,1.825,0.305,2.706
			l-3.117,2.281c-0.194,0.139-0.257,0.432-0.138,0.64l3.893,6.747c0.12,0.208,0.405,0.299,0.623,0.199l3.527-1.551
			c1.37,1.182,2.951,2.112,4.697,2.722l0.425,3.816c0.023,0.238,0.246,0.441,0.487,0.441h7.783c0.241,0,0.464-0.203,0.485-0.441
			l0.426-3.816c1.746-0.609,3.325-1.54,4.698-2.722l3.524,1.551c0.22,0.1,0.505,0.011,0.625-0.199l3.892-6.747
			c0.119-0.208,0.056-0.501-0.136-0.64l-3.117-2.281c0.167-0.881,0.305-1.771,0.305-2.706c0-0.934-0.138-1.838-0.305-2.721
			l3.117-2.279c0.185-0.139,0.246-0.42,0.136-0.623l-3.892-6.75c-0.114-0.212-0.404-0.311-0.625-0.213l-3.524,1.551
			c-1.373-1.183-2.952-2.112-4.698-2.721l-0.426-3.816c-0.027-0.233-0.251-0.428-0.485-0.426H302.109z M302.549,1331.335h6.902
			l0.412,3.648c0.02,0.186,0.156,0.354,0.332,0.41c1.849,0.599,3.534,1.572,4.941,2.844c0.135,0.126,0.346,0.162,0.516,0.092
			l3.359-1.476l3.468,5.989l-2.981,2.174c-0.145,0.11-0.218,0.309-0.182,0.487c0.196,0.922,0.305,1.882,0.305,2.856
			c0,0.976-0.108,1.92-0.305,2.844c-0.036,0.179,0.037,0.376,0.182,0.486l2.981,2.174l-3.453,5.99l-3.374-1.474
			c-0.17-0.072-0.381-0.035-0.516,0.09c-1.407,1.271-3.093,2.244-4.941,2.844c-0.176,0.057-0.312,0.224-0.332,0.411l-0.412,3.663
			h-6.902l-0.41-3.663c-0.02-0.188-0.156-0.354-0.334-0.411c-1.848-0.6-3.533-1.573-4.94-2.844c-0.136-0.125-0.347-0.162-0.518-0.09
			l-3.374,1.474l-3.451-5.99l2.979-2.174c0.146-0.11,0.22-0.308,0.183-0.486c-0.196-0.924-0.304-1.868-0.304-2.844
			c0-0.975,0.107-1.935,0.304-2.856c0.037-0.179-0.037-0.377-0.183-0.487l-2.979-2.174l3.466-5.989l3.359,1.476
			c0.171,0.07,0.382,0.034,0.518-0.092c1.407-1.271,3.093-2.245,4.94-2.844c0.178-0.057,0.314-0.225,0.334-0.41L302.549,1331.335
			L302.549,1331.335z M306.001,1339.605c-4.83,0-8.757,3.925-8.757,8.755c0,4.831,3.927,8.758,8.757,8.758
			c4.828,0,8.754-3.927,8.754-8.758C314.755,1343.53,310.829,1339.605,306.001,1339.605L306.001,1339.605z M306.001,1340.578
			c4.305,0,7.782,3.479,7.782,7.782c0,4.307-3.478,7.785-7.782,7.785s-7.784-3.479-7.784-7.785
			C298.217,1344.057,301.696,1340.578,306.001,1340.578L306.001,1340.578z"/>
	</g>
</g>
</svg>
